<svg xmlns="http://www.w3.org/2000/svg" xmlns:xlink="http://www.w3.org/1999/xlink" width="400" zoomAndPan="magnify" viewBox="0 0 300 74.999997" height="100" preserveAspectRatio="xMidYMid meet" version="1.0"><path fill="#ffffff" d="M 42.207031 11.398438 C 41.015625 11.78125 39.597656 13.070312 39.039062 14.277344 C 38.695312 14.988281 38.578125 15.582031 38.578125 16.582031 C 38.578125 20.6875 42.746094 23.261719 46.390625 21.417969 C 50.289062 19.441406 50.308594 13.742188 46.410156 11.765625 C 45.222656 11.167969 43.4375 10.996094 42.207031 11.398438 Z M 42.207031 11.398438 " fill-opacity="1" fill-rule="nonzero"/><path fill="#ffffff" d="M 25.355469 22.261719 C 23.398438 22.648438 21.824219 23.933594 21.210938 25.699219 C 20.863281 26.65625 20.84375 28.597656 21.171875 29.480469 C 22.246094 32.398438 25.71875 33.835938 28.558594 32.511719 C 29.769531 31.957031 30.59375 31.109375 31.210938 29.824219 C 32.246094 27.65625 31.515625 24.699219 29.578125 23.300781 C 28.332031 22.398438 26.738281 21.992188 25.355469 22.261719 Z M 25.355469 22.261719 " fill-opacity="1" fill-rule="nonzero"/><path fill="#ffffff" d="M 60.59375 22.261719 C 58.90625 22.53125 57.351562 23.742188 56.601562 25.410156 C 56.105469 26.484375 56.121094 28.769531 56.621094 29.863281 C 57.140625 31.035156 58.542969 32.320312 59.710938 32.703125 C 60.980469 33.125 62.9375 33.011719 64.03125 32.453125 C 64.472656 32.222656 65.183594 31.648438 65.605469 31.167969 C 67.964844 28.480469 67.199219 24.335938 64.03125 22.839844 C 62.6875 22.1875 61.882812 22.050781 60.59375 22.261719 Z M 60.59375 22.261719 " fill-opacity="1" fill-rule="nonzero"/><path fill="#ffffff" d="M 39.75 25.507812 C 37.714844 25.929688 35.757812 27.445312 34.835938 29.289062 C 34.335938 30.285156 34.261719 30.632812 34.203125 32.664062 C 34.125 34.777344 34.109375 34.910156 33.703125 35.007812 C 33.492188 35.066406 31.746094 35.121094 29.847656 35.140625 C 26.488281 35.199219 26.351562 35.21875 25.296875 35.738281 C 23.878906 36.429688 22.628906 37.675781 21.9375 39.097656 L 21.402344 40.191406 L 21.34375 46.695312 L 21.285156 53.222656 L 24.605469 56.542969 C 26.429688 58.367188 27.984375 59.863281 28.0625 59.863281 C 28.15625 59.863281 28.214844 56.332031 28.214844 52.011719 C 28.214844 44.203125 28.214844 44.183594 28.65625 43.546875 C 29.367188 42.492188 30.019531 42.128906 31.152344 42.128906 C 31.898438 42.128906 32.324219 42.242188 32.78125 42.570312 C 33.992188 43.433594 34.070312 43.742188 34.125 48.730469 L 34.183594 53.242188 L 37.484375 56.542969 C 39.289062 58.367188 40.84375 59.863281 40.921875 59.863281 C 41.015625 59.863281 41.074219 54.144531 41.074219 47.136719 C 41.074219 34.796875 41.09375 34.414062 41.457031 33.796875 C 42.628906 31.878906 45.566406 32.011719 46.527344 34.027344 C 46.792969 34.605469 46.832031 36.0625 46.832031 47.40625 L 46.832031 60.152344 L 53.722656 53.261719 L 53.78125 48.617188 C 53.839844 44.257812 53.859375 43.933594 54.242188 43.433594 C 54.972656 42.453125 55.585938 42.128906 56.71875 42.128906 C 57.851562 42.128906 58.464844 42.453125 59.195312 43.433594 C 59.578125 43.953125 59.597656 44.21875 59.65625 51.917969 C 59.671875 56.292969 59.769531 59.863281 59.847656 59.863281 C 59.921875 59.863281 61.476562 58.367188 63.300781 56.542969 L 66.621094 53.222656 L 66.5625 46.792969 L 66.507812 40.382812 L 65.988281 39.289062 C 65.316406 37.828125 63.933594 36.390625 62.589844 35.738281 C 61.554688 35.21875 61.382812 35.199219 57.675781 35.101562 L 53.839844 35.007812 L 53.742188 32.800781 C 53.648438 30.957031 53.550781 30.421875 53.128906 29.539062 C 52.378906 27.90625 51.421875 26.964844 49.75 26.140625 L 48.292969 25.410156 L 44.453125 25.371094 C 42.324219 25.351562 40.210938 25.410156 39.75 25.507812 Z M 39.75 25.507812 " fill-opacity="1" fill-rule="nonzero"/><path fill="#ffffff" d="M 112.667969 26.773438 C 110.058594 27.195312 109.195312 27.714844 108.40625 29.230469 C 107.90625 30.210938 107.695312 33.183594 107.695312 39.613281 C 107.695312 45.71875 107.90625 49.039062 108.332031 49.882812 C 109.308594 51.78125 110.59375 52.378906 113.722656 52.378906 C 116.910156 52.378906 118.214844 51.78125 119.117188 49.941406 C 119.617188 48.921875 119.65625 48.652344 119.730469 45.910156 L 119.808594 42.953125 L 116.316406 43.070312 L 116.257812 45.5625 C 116.179688 49.078125 115.890625 49.5 113.628906 49.5 C 112.707031 49.5 112.398438 49.402344 111.957031 49.039062 L 111.421875 48.578125 L 111.285156 44.085938 C 111.210938 41.628906 111.210938 37.597656 111.285156 35.140625 L 111.421875 30.652344 L 111.957031 30.191406 C 112.398438 29.804688 112.707031 29.730469 113.722656 29.730469 C 114.742188 29.730469 115.046875 29.804688 115.488281 30.191406 C 116.027344 30.652344 116.027344 30.667969 116.085938 33.355469 L 116.160156 36.0625 L 119.617188 36.0625 L 119.539062 33.125 C 119.480469 30.324219 119.460938 30.171875 118.90625 29.152344 C 118.292969 28.039062 117.445312 27.347656 116.332031 27.0625 C 115.46875 26.832031 113.320312 26.65625 112.667969 26.773438 Z M 112.667969 26.773438 " fill-opacity="1" fill-rule="nonzero"/><path fill="#ffffff" d="M 218.617188 26.773438 C 217.234375 26.964844 216.140625 27.445312 215.46875 28.195312 C 214.472656 29.308594 214.300781 30.113281 214.300781 33.953125 C 214.300781 37.042969 214.335938 37.386719 214.742188 38.269531 C 215.507812 39.941406 216.160156 40.382812 218.828125 41.054688 C 221.9375 41.820312 222.226562 42.070312 222.476562 44.257812 C 222.570312 45.085938 222.589844 46.351562 222.535156 47.097656 C 222.417969 48.230469 222.304688 48.519531 221.84375 48.980469 C 221.324219 49.519531 221.226562 49.539062 219.960938 49.460938 C 217.871094 49.34375 217.773438 49.191406 217.695312 45.757812 L 217.640625 42.972656 L 214.433594 42.972656 L 214.28125 44.238281 C 214.125 45.8125 214.300781 48.15625 214.703125 49.480469 C 215.085938 50.765625 216.007812 51.707031 217.3125 52.089844 C 218.597656 52.472656 221.6875 52.472656 222.976562 52.089844 C 224.183594 51.726562 225.164062 50.707031 225.585938 49.382812 C 226.257812 47.273438 226.160156 42.472656 225.414062 40.996094 C 224.625 39.421875 223.550781 38.769531 220.671875 38.078125 C 217.773438 37.40625 217.5625 37.003906 217.695312 32.839844 C 217.753906 30.976562 217.8125 30.652344 218.15625 30.304688 C 219.039062 29.421875 221.402344 29.421875 222.128906 30.324219 C 222.398438 30.667969 222.457031 31.148438 222.457031 33.394531 L 222.457031 36.082031 L 224.144531 36.023438 L 225.816406 35.96875 L 225.816406 33.375 C 225.816406 31.746094 225.71875 30.4375 225.546875 29.882812 C 225.183594 28.617188 224.203125 27.523438 223.070312 27.15625 C 222.109375 26.851562 219.730469 26.640625 218.617188 26.773438 Z M 218.617188 26.773438 " fill-opacity="1" fill-rule="nonzero"/><path fill="#ffffff" d="M 272.359375 26.773438 C 270.308594 27.042969 268.867188 28.058594 268.3125 29.652344 C 267.945312 30.652344 267.945312 36.773438 268.292969 37.925781 C 268.789062 39.613281 269.867188 40.382812 272.667969 41.074219 C 275.988281 41.898438 276.199219 42.167969 276.199219 45.8125 L 276.199219 48.386719 L 275.625 48.960938 C 275.066406 49.519531 274.972656 49.539062 273.703125 49.460938 C 271.613281 49.34375 271.515625 49.191406 271.441406 45.757812 L 271.382812 42.972656 L 268.15625 42.972656 L 268.023438 43.875 C 267.832031 45.179688 268.0625 48.5 268.445312 49.554688 C 268.867188 50.804688 269.808594 51.707031 271.054688 52.089844 C 272.207031 52.433594 275.257812 52.472656 276.46875 52.167969 C 277.523438 51.898438 278.578125 51.035156 279.136719 50.015625 C 279.539062 49.269531 279.558594 48.960938 279.558594 45.46875 C 279.558594 42.1875 279.519531 41.648438 279.195312 41.054688 C 278.3125 39.402344 277.3125 38.769531 274.453125 38.097656 C 272.285156 37.578125 271.84375 37.273438 271.59375 36.140625 C 271.34375 35.140625 271.363281 31.417969 271.59375 30.804688 C 271.6875 30.535156 271.996094 30.171875 272.265625 29.996094 C 273.261719 29.34375 275.757812 29.75 276.085938 30.59375 C 276.140625 30.765625 276.199219 32.070312 276.199219 33.492188 L 276.199219 36.082031 L 277.890625 36.023438 L 279.558594 35.96875 L 279.558594 33.375 C 279.558594 31.746094 279.460938 30.4375 279.289062 29.882812 C 278.925781 28.617188 277.945312 27.523438 276.8125 27.15625 C 275.855469 26.851562 273.472656 26.640625 272.359375 26.773438 Z M 272.359375 26.773438 " fill-opacity="1" fill-rule="nonzero"/><path fill="#ffffff" d="M 81 39.59375 L 81 52.1875 L 84.453125 52.1875 L 84.453125 43.164062 L 86.488281 43.164062 L 87.640625 47.617188 L 88.789062 52.089844 L 90.652344 52.148438 C 91.667969 52.167969 92.515625 52.167969 92.515625 52.128906 C 92.515625 52.070312 92.265625 51.1875 91.957031 50.152344 C 91.652344 49.097656 91.035156 46.964844 90.59375 45.390625 C 89.847656 42.683594 89.828125 42.511719 90.152344 42.320312 C 90.882812 41.9375 91.574219 40.976562 91.863281 39.980469 C 92.09375 39.152344 92.148438 38.117188 92.09375 34.585938 L 92.035156 30.210938 L 91.441406 29.152344 C 90.980469 28.347656 90.613281 27.984375 89.902344 27.617188 C 89.019531 27.15625 88.808594 27.136719 84.992188 27.082031 L 81 27.023438 Z M 88.042969 30.574219 L 88.578125 31.035156 L 88.578125 38.980469 L 88.042969 39.441406 C 87.5625 39.84375 87.3125 39.902344 85.96875 39.902344 L 84.453125 39.902344 L 84.453125 30.113281 L 85.96875 30.113281 C 87.3125 30.113281 87.5625 30.171875 88.042969 30.574219 Z M 88.042969 30.574219 " fill-opacity="1" fill-rule="nonzero"/><path fill="#ffffff" d="M 95.394531 39.613281 L 95.394531 52.1875 L 105.183594 52.1875 L 105.183594 49.113281 L 102.074219 49.078125 L 98.945312 49.019531 L 98.886719 45.046875 L 98.847656 41.074219 L 101.863281 41.015625 L 104.894531 40.957031 L 104.894531 37.886719 L 101.882812 37.828125 L 98.847656 37.769531 L 98.847656 30.113281 L 105.183594 30.113281 L 105.183594 27.042969 L 95.394531 27.042969 Z M 95.394531 39.613281 " fill-opacity="1" fill-rule="nonzero"/><path fill="#ffffff" d="M 122.839844 39.613281 L 122.839844 52.1875 L 126.296875 52.1875 L 126.296875 43.164062 L 128.347656 43.164062 L 129.367188 47.042969 C 129.921875 49.191406 130.460938 51.226562 130.554688 51.550781 L 130.730469 52.1875 L 132.535156 52.1875 C 133.53125 52.1875 134.355469 52.148438 134.355469 52.089844 C 134.355469 52.03125 133.742188 49.863281 132.996094 47.253906 C 131.726562 42.820312 131.652344 42.511719 131.996094 42.339844 C 132.726562 41.917969 133.417969 40.976562 133.722656 39.921875 C 133.953125 39.078125 134.03125 38 134.03125 35.007812 C 134.03125 30.515625 133.800781 29.382812 132.726562 28.289062 C 131.667969 27.253906 130.652344 27.042969 126.449219 27.042969 L 122.839844 27.042969 Z M 129.617188 30.324219 C 130.402344 30.6875 130.519531 31.246094 130.519531 35.027344 C 130.519531 39.730469 130.441406 39.882812 127.890625 39.902344 L 126.296875 39.902344 L 126.296875 30.113281 L 127.734375 30.113281 C 128.523438 30.113281 129.367188 30.210938 129.617188 30.324219 Z M 129.617188 30.324219 " fill-opacity="1" fill-rule="nonzero"/><path fill="#ffffff" d="M 137.082031 38.019531 C 137.140625 48.691406 137.160156 49.039062 137.542969 49.882812 C 138.445312 51.859375 139.941406 52.472656 143.492188 52.359375 C 145.296875 52.28125 145.738281 52.207031 146.546875 51.78125 C 147.332031 51.378906 147.601562 51.09375 148.082031 50.171875 L 148.65625 49.039062 L 148.714844 38.039062 L 148.773438 27.042969 L 145.296875 27.042969 L 145.257812 37.789062 L 145.203125 48.519531 L 144.777344 48.960938 C 144.472656 49.269531 144.070312 49.402344 143.222656 49.460938 C 141.898438 49.554688 140.960938 49.171875 140.691406 48.425781 C 140.574219 48.136719 140.5 43.683594 140.5 37.484375 L 140.5 27.042969 L 137.023438 27.042969 Z M 137.082031 38.019531 " fill-opacity="1" fill-rule="nonzero"/><path fill="#ffffff" d="M 152.207031 39.613281 L 152.207031 52.1875 L 155.664062 52.1875 L 155.664062 27.042969 L 152.207031 27.042969 Z M 152.207031 39.613281 " fill-opacity="1" fill-rule="nonzero"/><path fill="#ffffff" d="M 157.773438 28.578125 L 157.773438 30.113281 L 161.804688 30.113281 L 161.804688 52.207031 L 163.589844 52.148438 L 165.355469 52.089844 L 165.414062 41.09375 L 165.449219 30.113281 L 169.480469 30.113281 L 169.480469 27.042969 L 157.773438 27.042969 Z M 157.773438 28.578125 " fill-opacity="1" fill-rule="nonzero"/><path fill="#ffffff" d="M 176.777344 39.613281 L 176.777344 52.1875 L 180.421875 52.1875 L 180.421875 48.480469 C 180.421875 46.464844 180.289062 42.03125 180.132812 38.652344 C 179.980469 35.277344 179.847656 31.976562 179.847656 31.304688 L 179.847656 30.113281 L 180.613281 30.113281 C 181.210938 30.113281 181.382812 30.191406 181.382812 30.4375 C 181.382812 30.632812 181.6875 33.796875 182.054688 37.503906 C 182.570312 42.609375 182.917969 45.179688 183.53125 48.210938 L 184.335938 52.207031 L 186.71875 52.148438 L 189.117188 52.089844 L 189.941406 48.539062 C 190.632812 45.507812 190.84375 43.988281 191.457031 37.984375 C 191.84375 34.125 192.1875 30.785156 192.246094 30.535156 C 192.324219 30.191406 192.457031 30.113281 193.089844 30.113281 L 193.859375 30.113281 L 193.761719 31.6875 C 193.492188 35.890625 193.28125 42.742188 193.28125 47.234375 L 193.28125 52.1875 L 196.738281 52.1875 L 196.738281 27.042969 L 189.921875 27.042969 L 189 32.1875 C 188.195312 36.65625 188.042969 37.945312 187.8125 42.300781 C 187.660156 45.046875 187.523438 47.65625 187.523438 48.097656 C 187.523438 48.902344 187.503906 48.921875 186.871094 48.921875 C 186.21875 48.921875 186.199219 48.921875 186.105469 47.90625 C 186.046875 47.367188 185.855469 44.625 185.699219 41.839844 C 185.449219 37.464844 185.296875 36.101562 184.550781 31.992188 C 184.070312 29.382812 183.683594 27.195312 183.683594 27.136719 C 183.683594 27.082031 182.128906 27.042969 180.230469 27.042969 L 176.777344 27.042969 Z M 176.777344 39.613281 " fill-opacity="1" fill-rule="nonzero"/><path fill="#ffffff" d="M 202.417969 27.65625 C 202.359375 28 201.957031 31.226562 201.535156 34.816406 C 201.09375 38.40625 200.460938 43.703125 200.097656 46.5625 C 199.730469 49.441406 199.425781 51.878906 199.425781 51.992188 C 199.425781 52.128906 200.039062 52.1875 201.210938 52.148438 L 202.976562 52.089844 L 203.261719 49.113281 L 203.550781 46.140625 L 207.964844 46.140625 L 208.253906 49.113281 L 208.542969 52.089844 L 210.328125 52.148438 C 211.285156 52.167969 212.09375 52.148438 212.09375 52.089844 C 212.09375 52.03125 211.746094 49.210938 211.324219 45.8125 C 210.902344 42.398438 210.269531 37.097656 209.886719 34.046875 C 209.519531 30.976562 209.15625 28.15625 209.097656 27.753906 L 208.984375 27.042969 L 202.535156 27.042969 Z M 206.601562 30.917969 C 206.738281 32.109375 207.484375 41.628906 207.484375 42.242188 L 207.484375 42.78125 L 205.644531 42.78125 C 203.992188 42.78125 203.820312 42.742188 203.914062 42.433594 C 203.972656 42.261719 204.183594 39.863281 204.414062 37.117188 C 204.625 34.375 204.855469 31.667969 204.914062 31.109375 L 205.007812 30.113281 L 205.757812 30.113281 C 206.488281 30.113281 206.507812 30.132812 206.601562 30.917969 Z M 206.601562 30.917969 " fill-opacity="1" fill-rule="nonzero"/><path fill="#ffffff" d="M 227.640625 28.578125 L 227.640625 30.113281 L 231.667969 30.113281 L 231.667969 52.1875 L 235.125 52.1875 L 235.125 30.113281 L 239.347656 30.113281 L 239.347656 27.042969 L 227.640625 27.042969 Z M 227.640625 28.578125 " fill-opacity="1" fill-rule="nonzero"/><path fill="#ffffff" d="M 241.304688 39.554688 L 241.363281 52.089844 L 246.316406 52.148438 L 251.246094 52.1875 L 251.246094 49.113281 L 244.914062 49.113281 L 244.914062 41.054688 L 250.882812 41.054688 L 250.824219 39.460938 L 250.769531 37.886719 L 247.851562 37.828125 L 244.914062 37.769531 L 244.914062 30.113281 L 251.246094 30.113281 L 251.246094 27.042969 L 241.265625 27.042969 Z M 241.304688 39.554688 " fill-opacity="1" fill-rule="nonzero"/><path fill="#ffffff" d="M 253.933594 39.613281 L 253.933594 52.1875 L 257.582031 52.1875 L 257.582031 43.164062 L 258.523438 43.164062 C 259.269531 43.164062 259.5 43.242188 259.578125 43.492188 C 259.730469 43.972656 261.804688 51.992188 261.804688 52.109375 C 261.804688 52.148438 262.648438 52.1875 263.683594 52.1875 L 265.585938 52.1875 L 264.28125 47.617188 C 263.550781 45.121094 262.957031 42.953125 262.957031 42.839844 C 262.957031 42.703125 263.320312 42.222656 263.78125 41.765625 C 265.027344 40.535156 265.164062 39.824219 265.164062 34.816406 L 265.164062 30.59375 L 264.585938 29.441406 C 263.972656 28.210938 263.222656 27.578125 262.015625 27.234375 C 261.632812 27.136719 259.65625 27.042969 257.640625 27.042969 L 253.933594 27.042969 Z M 260.730469 30.304688 C 261 30.402344 261.304688 30.652344 261.402344 30.863281 C 261.707031 31.417969 261.882812 34.910156 261.707031 37.097656 C 261.515625 39.652344 261.304688 39.902344 259.117188 39.902344 L 257.582031 39.902344 L 257.582031 30.113281 L 258.90625 30.113281 C 259.636719 30.113281 260.460938 30.191406 260.730469 30.304688 Z M 260.730469 30.304688 " fill-opacity="1" fill-rule="nonzero"/></svg>