<svg width="190" height="30" viewBox="0 0 190 30" fill="none" xmlns="http://www.w3.org/2000/svg">
<path d="M10.688 23.84C16.448 23.84 20.032 20.16 20.544 15.072H16.864C16.64 17.856 15.072 20.8 10.656 20.8C5.6 20.8 3.68 16.512 3.68 11.936C3.68 7.392 5.6 3.104 10.656 3.104C15.04 3.104 16.448 6.048 16.864 8.288H20.544C20 3.712 16.448 0.0639992 10.72 0.0639992C4.224 0.0639992 0 5.056 0 11.968C0 18.848 4.192 23.84 10.688 23.84Z" fill="#F2F2F2"/>
<path d="M30.4353 23.872C35.5233 23.872 38.5953 20.32 38.5953 15.2C38.5953 10.112 35.5233 6.56 30.4673 6.56C25.3473 6.56 22.2752 10.144 22.2752 15.232C22.2752 20.352 25.3473 23.872 30.4353 23.872ZM25.5392 15.232C25.5392 11.808 27.0753 9.184 30.4673 9.184C33.7953 9.184 35.3312 11.808 35.3312 15.232C35.3312 18.624 33.7953 21.28 30.4673 21.28C27.0753 21.28 25.5392 18.624 25.5392 15.232Z" fill="#F2F2F2"/>
<path d="M48.5602 23.872C53.6482 23.872 56.7203 20.32 56.7203 15.2C56.7203 10.112 53.6483 6.56 48.5923 6.56C43.4723 6.56 40.4002 10.144 40.4002 15.232C40.4002 20.352 43.4722 23.872 48.5602 23.872ZM43.6642 15.232C43.6642 11.808 45.2003 9.184 48.5923 9.184C51.9203 9.184 53.4562 11.808 53.4562 15.232C53.4562 18.624 51.9203 21.28 48.5923 21.28C45.2003 21.28 43.6642 18.624 43.6642 15.232Z" fill="#F2F2F2"/>
<path d="M67.6133 23.84C71.7733 23.84 74.9413 20.608 74.9413 15.232C74.9413 9.856 71.7733 6.592 67.6133 6.592C65.0533 6.592 63.4852 7.84 62.5892 8.992H62.5252V7.072H59.3893V29.056H62.5252V21.376H62.5892C63.4852 22.688 65.0533 23.84 67.6133 23.84ZM62.5573 15.232C62.5573 11.52 64.2852 9.216 67.1012 9.216C70.1733 9.216 71.6452 12.032 71.6452 15.232C71.6452 18.432 70.1733 21.248 67.1012 21.248C64.2852 21.248 62.5573 18.912 62.5573 15.232Z" fill="#F2F2F2"/>
<path d="M84.8713 23.872C89.1593 23.872 91.5592 21.504 92.4232 18.368H89.2233C88.9353 19.456 87.8152 21.312 84.9352 21.312C81.7032 21.312 80.1033 18.784 80.0393 16.064H92.5833C92.6153 15.808 92.6152 15.328 92.6152 14.88C92.6152 9.824 89.8313 6.56 84.8713 6.56C79.8793 6.56 76.8073 10.08 76.8073 15.2C76.8073 20.192 79.6873 23.872 84.8713 23.872ZM80.0393 13.6C80.2313 10.912 82.1513 9.12 84.7753 9.12C87.5593 9.12 89.3512 11.04 89.3512 13.6H80.0393Z" fill="#F2F2F2"/>
<path d="M98.4003 14.944C98.4003 11.84 100.448 9.696 103.296 9.696C103.68 9.696 103.968 9.728 104.352 9.792V6.784C103.872 6.72 103.424 6.688 102.848 6.688C100.64 6.688 99.3282 8.128 98.4642 10.176H98.4003V7.072H95.2643V23.392H98.4003V14.944Z" fill="#F2F2F2"/>
<path d="M114.613 23.84C118.773 23.84 121.941 20.608 121.941 15.232C121.941 9.856 118.773 6.592 114.613 6.592C112.053 6.592 110.485 7.84 109.589 8.992H109.525V0.511999H106.389V23.392H109.525V21.376H109.589C110.485 22.688 112.053 23.84 114.613 23.84ZM109.557 15.232C109.557 11.52 111.285 9.216 114.101 9.216C117.173 9.216 118.645 12.032 118.645 15.232C118.645 18.432 117.173 21.248 114.101 21.248C111.285 21.248 109.557 18.912 109.557 15.232Z" fill="#F2F2F2"/>
<path d="M129.151 23.84C131.807 23.84 133.663 22.784 134.719 21.088H134.783C134.975 22.944 135.807 23.552 137.375 23.552C137.887 23.552 138.431 23.488 138.975 23.36V21.44C138.783 21.472 138.687 21.472 138.591 21.472C137.983 21.472 137.823 20.864 137.823 19.68V12.192C137.823 7.968 135.135 6.56 131.775 6.56C126.783 6.56 124.735 9.024 124.575 12.16H127.775C127.935 9.984 128.799 9.088 131.647 9.088C134.047 9.088 134.751 10.08 134.751 11.264C134.751 12.864 133.183 13.184 130.623 13.664C126.559 14.432 123.807 15.52 123.807 19.168C123.807 21.952 125.887 23.84 129.151 23.84ZM127.071 18.944C127.071 17.248 128.287 16.448 131.167 15.872C132.831 15.52 134.239 15.168 134.751 14.688V17.024C134.751 19.872 132.671 21.312 129.855 21.312C127.903 21.312 127.071 20.48 127.071 18.944Z" fill="#F2F2F2"/>
<path d="M152.519 12.928V23.392H155.655V12.064C155.655 8.32 153.223 6.592 150.215 6.592C147.399 6.592 145.703 7.872 144.839 9.12H144.775V7.072H141.639V23.392H144.775V13.376C144.775 10.912 146.503 9.28 149.191 9.28C151.559 9.28 152.519 10.752 152.519 12.928Z" fill="#F2F2F2"/>
<path d="M159.046 23.392H162.182V17.312L164.549 15.04L169.893 23.392H173.605L166.661 13.056L172.934 7.072H169.318L162.182 13.984V0.511999H159.046V23.392Z" fill="#F2F2F2"/>
<path d="M182.249 15.488C186.505 15.488 189.865 12.192 189.865 7.744C189.865 3.296 186.505 0 182.249 0C177.993 0 174.633 3.296 174.633 7.744C174.633 12.192 177.993 15.488 182.249 15.488ZM176.137 7.744C176.137 4 178.729 1.312 182.249 1.312C185.769 1.312 188.361 4 188.361 7.744C188.361 11.488 185.769 14.176 182.249 14.176C178.729 14.176 176.137 11.488 176.137 7.744ZM179.049 11.968H181.161V8.96H181.961C183.945 8.96 183.241 11.584 183.657 11.968H185.833V11.872C185.321 11.712 186.025 8.48 183.849 8.128V8.096C184.937 7.84 185.641 7.136 185.641 5.952C185.641 4.352 184.585 3.456 182.601 3.456H179.049V11.968ZM181.161 7.264V5.056H182.025C182.889 5.056 183.625 5.216 183.625 6.144C183.625 7.072 182.889 7.264 182.025 7.264H181.161Z" fill="#F2F2F2"/>
</svg>
