<svg xmlns="http://www.w3.org/2000/svg" xmlns:xlink="http://www.w3.org/1999/xlink" width="500" zoomAndPan="magnify" viewBox="0 0 375 374.999991" height="500" preserveAspectRatio="xMidYMid meet" version="1.0"><path fill="#ffffff" d="M 52.757812 156.789062 C 51.273438 157.269531 49.496094 158.878906 48.800781 160.386719 C 48.367188 161.277344 48.222656 162.019531 48.222656 163.269531 C 48.222656 168.402344 53.429688 171.617188 57.988281 169.3125 C 62.859375 166.84375 62.882812 159.71875 58.011719 157.246094 C 56.527344 156.5 54.292969 156.285156 52.757812 156.789062 Z M 52.757812 156.789062 " fill-opacity="1" fill-rule="nonzero"/><path fill="#ffffff" d="M 31.695312 170.371094 C 29.246094 170.847656 27.277344 172.457031 26.511719 174.664062 C 26.078125 175.863281 26.054688 178.285156 26.464844 179.390625 C 27.808594 183.039062 32.148438 184.835938 35.699219 183.179688 C 37.210938 182.484375 38.242188 181.429688 39.011719 179.824219 C 40.308594 177.109375 39.394531 173.417969 36.972656 171.664062 C 35.414062 170.539062 33.421875 170.035156 31.695312 170.371094 Z M 31.695312 170.371094 " fill-opacity="1" fill-rule="nonzero"/><path fill="#ffffff" d="M 75.742188 170.371094 C 73.632812 170.707031 71.6875 172.21875 70.753906 174.304688 C 70.128906 175.648438 70.152344 178.503906 70.777344 179.871094 C 71.425781 181.332031 73.175781 182.941406 74.640625 183.421875 C 76.222656 183.949219 78.671875 183.804688 80.039062 183.109375 C 80.589844 182.820312 81.476562 182.101562 82.003906 181.5 C 84.957031 178.144531 83.996094 172.960938 80.039062 171.089844 C 78.359375 170.273438 77.351562 170.105469 75.742188 170.371094 Z M 75.742188 170.371094 " fill-opacity="1" fill-rule="nonzero"/><path fill="#ffffff" d="M 49.6875 174.425781 C 47.144531 174.953125 44.699219 176.847656 43.546875 179.152344 C 42.921875 180.398438 42.828125 180.832031 42.753906 183.375 C 42.660156 186.011719 42.632812 186.179688 42.128906 186.300781 C 41.867188 186.371094 39.683594 186.445312 37.308594 186.46875 C 33.109375 186.539062 32.941406 186.5625 31.621094 187.210938 C 29.847656 188.074219 28.285156 189.636719 27.421875 191.410156 L 26.75 192.777344 L 26.679688 200.910156 L 26.609375 209.070312 L 30.757812 213.21875 C 33.039062 215.5 34.980469 217.371094 35.078125 217.371094 C 35.195312 217.371094 35.269531 212.957031 35.269531 207.558594 C 35.269531 197.792969 35.269531 197.769531 35.820312 196.976562 C 36.707031 195.65625 37.523438 195.203125 38.941406 195.203125 C 39.875 195.203125 40.402344 195.34375 40.980469 195.753906 C 42.492188 196.832031 42.585938 197.21875 42.660156 203.453125 L 42.730469 209.09375 L 46.855469 213.21875 C 49.113281 215.5 51.054688 217.371094 51.152344 217.371094 C 51.273438 217.371094 51.34375 210.222656 51.34375 201.464844 C 51.34375 186.035156 51.367188 185.554688 51.824219 184.789062 C 53.285156 182.390625 56.957031 182.558594 58.15625 185.078125 C 58.492188 185.796875 58.542969 187.621094 58.542969 201.800781 L 58.542969 217.730469 L 67.15625 209.117188 L 67.226562 203.3125 C 67.296875 197.863281 67.324219 197.457031 67.800781 196.832031 C 68.714844 195.609375 69.480469 195.203125 70.898438 195.203125 C 72.3125 195.203125 73.082031 195.609375 73.992188 196.832031 C 74.472656 197.480469 74.496094 197.816406 74.566406 207.4375 C 74.59375 212.90625 74.710938 217.371094 74.808594 217.371094 C 74.902344 217.371094 76.847656 215.5 79.125 213.21875 L 83.277344 209.070312 L 83.207031 201.03125 L 83.132812 193.019531 L 82.484375 191.652344 C 81.644531 189.828125 79.917969 188.027344 78.238281 187.210938 C 76.945312 186.5625 76.726562 186.539062 72.097656 186.421875 L 67.296875 186.300781 L 67.179688 183.542969 C 67.058594 181.238281 66.9375 180.566406 66.410156 179.460938 C 65.476562 177.421875 64.277344 176.246094 62.1875 175.214844 L 60.363281 174.304688 L 55.566406 174.257812 C 52.902344 174.230469 50.265625 174.304688 49.6875 174.425781 Z M 49.6875 174.425781 " fill-opacity="1" fill-rule="nonzero"/><path fill="#ffffff" d="M 140.835938 176.007812 C 137.570312 176.535156 136.492188 177.183594 135.507812 179.078125 C 134.886719 180.300781 134.621094 184.019531 134.621094 192.058594 C 134.621094 199.6875 134.886719 203.839844 135.414062 204.894531 C 136.636719 207.269531 138.242188 208.011719 142.15625 208.011719 C 146.136719 208.011719 147.769531 207.269531 148.894531 204.964844 C 149.519531 203.695312 149.566406 203.359375 149.664062 199.929688 L 149.761719 196.234375 L 147.578125 196.304688 L 145.394531 196.378906 L 145.320312 199.496094 C 145.226562 203.886719 144.867188 204.414062 142.035156 204.414062 C 140.882812 204.414062 140.5 204.292969 139.945312 203.839844 L 139.277344 203.261719 L 139.109375 197.648438 C 139.011719 194.578125 139.011719 189.539062 139.109375 186.46875 L 139.277344 180.855469 L 139.945312 180.277344 C 140.5 179.796875 140.882812 179.703125 142.15625 179.703125 C 143.425781 179.703125 143.808594 179.796875 144.363281 180.277344 C 145.035156 180.855469 145.035156 180.878906 145.105469 184.238281 L 145.203125 187.621094 L 149.519531 187.621094 L 149.425781 183.949219 C 149.351562 180.445312 149.328125 180.253906 148.632812 178.984375 C 147.863281 177.589844 146.808594 176.726562 145.417969 176.367188 C 144.335938 176.078125 141.652344 175.863281 140.835938 176.007812 Z M 140.835938 176.007812 " fill-opacity="1" fill-rule="nonzero"/><path fill="#ffffff" d="M 273.273438 176.007812 C 271.546875 176.246094 270.175781 176.847656 269.335938 177.78125 C 268.089844 179.175781 267.875 180.183594 267.875 184.980469 C 267.875 188.84375 267.921875 189.277344 268.425781 190.378906 C 269.386719 192.464844 270.203125 193.019531 273.535156 193.859375 C 277.421875 194.816406 277.78125 195.128906 278.09375 197.863281 C 278.214844 198.894531 278.238281 200.480469 278.167969 201.414062 C 278.023438 202.832031 277.878906 203.191406 277.304688 203.765625 C 276.65625 204.4375 276.535156 204.460938 274.953125 204.367188 C 272.335938 204.222656 272.21875 204.03125 272.121094 199.734375 L 272.050781 196.257812 L 268.042969 196.257812 L 267.851562 197.839844 C 267.660156 199.808594 267.875 202.734375 268.378906 204.390625 C 268.859375 206 270.007812 207.171875 271.640625 207.652344 C 273.25 208.132812 277.109375 208.132812 278.71875 207.652344 C 280.230469 207.199219 281.453125 205.925781 281.980469 204.269531 C 282.820312 201.632812 282.703125 195.632812 281.765625 193.785156 C 280.78125 191.820312 279.4375 191.003906 275.839844 190.140625 C 272.21875 189.300781 271.953125 188.796875 272.121094 183.589844 C 272.191406 181.261719 272.265625 180.855469 272.695312 180.421875 C 273.800781 179.320312 276.75 179.320312 277.664062 180.445312 C 278 180.878906 278.070312 181.476562 278.070312 184.285156 L 278.070312 187.644531 L 280.183594 187.570312 L 282.269531 187.5 L 282.269531 184.261719 C 282.269531 182.222656 282.148438 180.589844 281.933594 179.894531 C 281.476562 178.3125 280.253906 176.941406 278.839844 176.488281 C 277.640625 176.105469 274.664062 175.839844 273.273438 176.007812 Z M 273.273438 176.007812 " fill-opacity="1" fill-rule="nonzero"/><path fill="#ffffff" d="M 340.449219 176.007812 C 337.882812 176.34375 336.085938 177.613281 335.390625 179.605469 C 334.933594 180.855469 334.933594 188.507812 335.363281 189.945312 C 335.988281 192.058594 337.332031 193.019531 340.835938 193.882812 C 344.984375 194.914062 345.25 195.25 345.25 199.808594 L 345.25 203.023438 L 344.53125 203.742188 C 343.832031 204.4375 343.714844 204.460938 342.128906 204.367188 C 339.515625 204.222656 339.394531 204.03125 339.300781 199.734375 L 339.226562 196.257812 L 335.195312 196.257812 L 335.027344 197.386719 C 334.789062 199.015625 335.078125 203.167969 335.554688 204.488281 C 336.085938 206.046875 337.261719 207.171875 338.820312 207.652344 C 340.257812 208.085938 344.074219 208.132812 345.585938 207.75 C 346.90625 207.414062 348.222656 206.332031 348.921875 205.0625 C 349.425781 204.125 349.449219 203.742188 349.449219 199.375 C 349.449219 195.273438 349.398438 194.601562 348.992188 193.859375 C 347.890625 191.792969 346.640625 191.003906 343.066406 190.164062 C 340.355469 189.515625 339.804688 189.132812 339.492188 187.714844 C 339.179688 186.46875 339.203125 181.8125 339.492188 181.046875 C 339.609375 180.710938 339.996094 180.253906 340.332031 180.039062 C 341.578125 179.222656 344.699219 179.726562 345.105469 180.78125 C 345.175781 181 345.25 182.628906 345.25 184.40625 L 345.25 187.644531 L 347.359375 187.570312 L 349.449219 187.5 L 349.449219 184.261719 C 349.449219 182.222656 349.328125 180.589844 349.113281 179.894531 C 348.65625 178.3125 347.433594 176.941406 346.015625 176.488281 C 344.816406 176.105469 341.84375 175.839844 340.449219 176.007812 Z M 340.449219 176.007812 " fill-opacity="1" fill-rule="nonzero"/><path fill="#ffffff" d="M 101.246094 192.035156 L 101.246094 207.773438 L 105.566406 207.773438 L 105.566406 196.496094 L 108.109375 196.496094 L 109.550781 202.0625 L 110.988281 207.652344 L 113.316406 207.726562 C 114.585938 207.75 115.644531 207.75 115.644531 207.703125 C 115.644531 207.628906 115.332031 206.527344 114.945312 205.230469 C 114.5625 203.910156 113.796875 201.246094 113.242188 199.28125 C 112.308594 195.898438 112.285156 195.679688 112.691406 195.441406 C 113.605469 194.960938 114.46875 193.761719 114.828125 192.515625 C 115.113281 191.484375 115.1875 190.1875 115.113281 185.773438 L 115.042969 180.300781 L 114.300781 178.984375 C 113.722656 177.976562 113.269531 177.519531 112.378906 177.0625 C 111.277344 176.488281 111.011719 176.464844 106.238281 176.390625 L 101.246094 176.320312 Z M 110.054688 180.757812 L 110.722656 181.332031 L 110.722656 191.265625 L 110.054688 191.84375 C 109.453125 192.347656 109.140625 192.417969 107.460938 192.417969 L 105.566406 192.417969 L 105.566406 180.183594 L 107.460938 180.183594 C 109.140625 180.183594 109.453125 180.253906 110.054688 180.757812 Z M 110.054688 180.757812 " fill-opacity="1" fill-rule="nonzero"/><path fill="#ffffff" d="M 119.242188 192.058594 L 119.242188 207.773438 L 131.476562 207.773438 L 131.476562 203.933594 L 127.589844 203.886719 L 123.679688 203.816406 L 123.609375 198.847656 L 123.558594 193.882812 L 127.328125 193.808594 L 131.117188 193.738281 L 131.117188 189.898438 L 127.351562 189.828125 L 123.558594 189.753906 L 123.558594 180.183594 L 131.476562 180.183594 L 131.476562 176.34375 L 119.242188 176.34375 Z M 119.242188 192.058594 " fill-opacity="1" fill-rule="nonzero"/><path fill="#ffffff" d="M 153.550781 192.058594 L 153.550781 207.773438 L 157.871094 207.773438 L 157.871094 196.496094 L 160.4375 196.496094 L 161.707031 201.34375 C 162.402344 204.03125 163.074219 206.574219 163.195312 206.980469 L 163.410156 207.773438 L 165.667969 207.773438 C 166.914062 207.773438 167.945312 207.726562 167.945312 207.652344 C 167.945312 207.582031 167.179688 204.871094 166.242188 201.609375 C 164.660156 196.066406 164.5625 195.679688 164.996094 195.464844 C 165.90625 194.9375 166.769531 193.761719 167.15625 192.441406 C 167.441406 191.386719 167.539062 190.042969 167.539062 186.300781 C 167.539062 180.6875 167.25 179.269531 165.90625 177.902344 C 164.585938 176.609375 163.316406 176.34375 158.0625 176.34375 L 153.550781 176.34375 Z M 162.019531 180.445312 C 163.003906 180.902344 163.148438 181.597656 163.148438 186.324219 C 163.148438 192.203125 163.050781 192.394531 159.859375 192.417969 L 157.871094 192.417969 L 157.871094 180.183594 L 159.667969 180.183594 C 160.652344 180.183594 161.707031 180.300781 162.019531 180.445312 Z M 162.019531 180.445312 " fill-opacity="1" fill-rule="nonzero"/><path fill="#ffffff" d="M 171.351562 190.066406 C 171.425781 203.40625 171.449219 203.839844 171.929688 204.894531 C 173.054688 207.367188 174.929688 208.132812 179.367188 207.988281 C 181.621094 207.894531 182.171875 207.796875 183.179688 207.269531 C 184.164062 206.765625 184.5 206.40625 185.101562 205.253906 L 185.820312 203.839844 L 185.890625 190.089844 L 185.964844 176.34375 L 181.621094 176.34375 L 181.574219 189.777344 L 181.5 203.191406 L 180.972656 203.742188 C 180.589844 204.125 180.085938 204.292969 179.03125 204.367188 C 177.375 204.488281 176.199219 204.007812 175.863281 203.070312 C 175.71875 202.710938 175.625 197.144531 175.625 189.394531 L 175.625 176.34375 L 171.28125 176.34375 Z M 171.351562 190.066406 " fill-opacity="1" fill-rule="nonzero"/><path fill="#ffffff" d="M 190.257812 192.058594 L 190.257812 207.773438 L 194.578125 207.773438 L 194.578125 176.34375 L 190.257812 176.34375 Z M 190.257812 192.058594 " fill-opacity="1" fill-rule="nonzero"/><path fill="#ffffff" d="M 197.21875 178.261719 L 197.21875 180.183594 L 202.253906 180.183594 L 202.253906 207.796875 L 204.488281 207.726562 L 206.695312 207.652344 L 206.765625 193.90625 L 206.8125 180.183594 L 211.851562 180.183594 L 211.851562 176.34375 L 197.21875 176.34375 Z M 197.21875 178.261719 " fill-opacity="1" fill-rule="nonzero"/><path fill="#ffffff" d="M 220.96875 192.058594 L 220.96875 207.773438 L 225.527344 207.773438 L 225.527344 203.144531 C 225.527344 200.625 225.359375 195.082031 225.167969 190.859375 C 224.976562 186.636719 224.808594 182.507812 224.808594 181.667969 L 224.808594 180.183594 L 225.769531 180.183594 C 226.511719 180.183594 226.726562 180.277344 226.726562 180.589844 C 226.726562 180.832031 227.109375 184.789062 227.566406 189.417969 C 228.214844 195.800781 228.648438 199.015625 229.414062 202.808594 L 230.421875 207.796875 L 233.398438 207.726562 L 236.394531 207.652344 L 237.429688 203.214844 C 238.292969 199.425781 238.554688 197.527344 239.324219 190.019531 C 239.804688 185.195312 240.234375 181.023438 240.308594 180.710938 C 240.402344 180.277344 240.570312 180.183594 241.363281 180.183594 L 242.324219 180.183594 L 242.203125 182.148438 C 241.867188 187.402344 241.601562 195.96875 241.601562 201.582031 L 241.601562 207.773438 L 245.921875 207.773438 L 245.921875 176.34375 L 237.402344 176.34375 L 236.253906 182.773438 C 235.246094 188.363281 235.054688 189.972656 234.765625 195.417969 C 234.574219 198.847656 234.40625 202.109375 234.40625 202.664062 C 234.40625 203.671875 234.382812 203.695312 233.589844 203.695312 C 232.773438 203.695312 232.75 203.695312 232.628906 202.421875 C 232.558594 201.75 232.316406 198.320312 232.125 194.839844 C 231.8125 189.371094 231.621094 187.667969 230.6875 182.535156 C 230.085938 179.269531 229.605469 176.535156 229.605469 176.464844 C 229.605469 176.390625 227.664062 176.34375 225.289062 176.34375 L 220.96875 176.34375 Z M 220.96875 192.058594 " fill-opacity="1" fill-rule="nonzero"/><path fill="#ffffff" d="M 253.023438 177.109375 C 252.949219 177.542969 252.445312 181.574219 251.917969 186.058594 C 251.367188 190.546875 250.574219 197.167969 250.121094 200.742188 C 249.664062 204.34375 249.28125 207.390625 249.28125 207.535156 C 249.28125 207.703125 250.046875 207.773438 251.511719 207.726562 L 253.71875 207.652344 L 254.4375 200.214844 L 259.957031 200.214844 L 260.675781 207.652344 L 262.90625 207.726562 C 264.109375 207.75 265.113281 207.726562 265.113281 207.652344 C 265.113281 207.582031 264.683594 204.054688 264.15625 199.808594 C 263.628906 195.539062 262.835938 188.914062 262.355469 185.101562 C 261.898438 181.261719 261.445312 177.734375 261.371094 177.230469 L 261.226562 176.34375 L 253.167969 176.34375 Z M 258.253906 181.191406 C 258.421875 182.675781 259.355469 194.578125 259.355469 195.34375 L 259.355469 196.015625 L 257.054688 196.015625 C 254.992188 196.015625 254.773438 195.96875 254.894531 195.585938 C 254.964844 195.371094 255.230469 192.371094 255.519531 188.941406 C 255.78125 185.507812 256.070312 182.125 256.140625 181.429688 L 256.261719 180.183594 L 257.199219 180.183594 C 258.109375 180.183594 258.132812 180.207031 258.253906 181.191406 Z M 258.253906 181.191406 " fill-opacity="1" fill-rule="nonzero"/><path fill="#ffffff" d="M 284.550781 178.261719 L 284.550781 180.183594 L 289.585938 180.183594 L 289.585938 207.773438 L 293.90625 207.773438 L 293.90625 180.183594 L 299.183594 180.183594 L 299.183594 176.34375 L 284.550781 176.34375 Z M 284.550781 178.261719 " fill-opacity="1" fill-rule="nonzero"/><path fill="#ffffff" d="M 301.632812 191.988281 L 301.703125 207.652344 L 307.894531 207.726562 L 314.058594 207.773438 L 314.058594 203.933594 L 306.140625 203.933594 L 306.140625 193.859375 L 313.605469 193.859375 L 313.53125 191.867188 L 313.460938 189.898438 L 309.8125 189.828125 L 306.140625 189.753906 L 306.140625 180.183594 L 314.058594 180.183594 L 314.058594 176.34375 L 301.582031 176.34375 Z M 301.632812 191.988281 " fill-opacity="1" fill-rule="nonzero"/><path fill="#ffffff" d="M 317.417969 192.058594 L 317.417969 207.773438 L 321.976562 207.773438 L 321.976562 196.496094 L 323.152344 196.496094 C 324.089844 196.496094 324.375 196.59375 324.472656 196.90625 C 324.664062 197.503906 327.253906 207.535156 327.253906 207.675781 C 327.253906 207.726562 328.3125 207.773438 329.605469 207.773438 L 331.980469 207.773438 L 330.351562 202.0625 C 329.4375 198.945312 328.695312 196.234375 328.695312 196.089844 C 328.695312 195.921875 329.152344 195.320312 329.726562 194.746094 C 331.285156 193.210938 331.453125 192.324219 331.453125 186.058594 L 331.453125 180.78125 L 330.734375 179.34375 C 329.964844 177.808594 329.03125 177.015625 327.519531 176.582031 C 327.039062 176.464844 324.566406 176.34375 322.050781 176.34375 L 317.417969 176.34375 Z M 325.910156 180.421875 C 326.246094 180.542969 326.632812 180.855469 326.75 181.117188 C 327.136719 181.8125 327.351562 186.179688 327.136719 188.914062 C 326.894531 192.105469 326.632812 192.417969 323.894531 192.417969 L 321.976562 192.417969 L 321.976562 180.183594 L 323.632812 180.183594 C 324.542969 180.183594 325.574219 180.277344 325.910156 180.421875 Z M 325.910156 180.421875 " fill-opacity="1" fill-rule="nonzero"/></svg>